<svg width="70" height="56" viewBox="0 0 70 56" fill="none" xmlns="http://www.w3.org/2000/svg">
<path d="M18.3065 0.787994L18.7145 1.19599L7.80649 12.104L7.39849 11.696L18.3065 0.787994Z" fill="white"/>
<path d="M23.5039 11.1172C21.9394 11.1172 21.2949 10.3027 21.2949 8.41015V3.66992H19.5371V2.21093H22.8769V8.35156C22.8769 9.13085 23.0469 9.46484 23.9726 9.46484C24.3418 9.46484 24.7344 9.39453 25.2734 9.24218L25.4551 10.8711C24.7871 11.0469 24.207 11.1172 23.5039 11.1172Z" fill="white"/>
<path d="M29.1537 11.828C28.4217 10.94 27.4017 9.90799 26.5617 9.18799L27.8217 8.10799C28.6737 8.80399 29.8257 9.97999 30.4377 10.724L29.1537 11.828Z" fill="white"/>
<path d="M0.955994 20.44C0.955994 17.884 2.02399 15.964 3.31999 14.68L4.45999 15.196C3.24799 16.48 2.31199 18.148 2.31199 20.44C2.31199 22.744 3.24799 24.412 4.45999 25.696L3.31999 26.212C2.02399 24.928 0.955994 23.008 0.955994 20.44Z" fill="white"/>
<path d="M5.88799 16.3C5.88799 16.72 6.12799 17.068 6.45199 17.068C6.75199 17.068 7.01599 16.72 7.01599 16.3C7.01599 15.892 6.75199 15.544 6.45199 15.544C6.12799 15.544 5.88799 15.892 5.88799 16.3ZM5.25199 16.3C5.25199 15.436 5.79199 14.74 6.45199 14.74C7.09999 14.74 7.65199 15.436 7.65199 16.3C7.65199 17.164 7.09999 17.86 6.45199 17.86C5.79199 17.86 5.25199 17.164 5.25199 16.3Z" fill="white"/>
<path d="M13.772 25.828C13.04 24.94 12.032 23.908 11.192 23.188L12.452 22.108C13.292 22.804 14.456 23.98 15.056 24.724L13.772 25.828Z" fill="white"/>
<path d="M26.2992 22.036C27.3792 22.036 28.2432 22.9 28.2432 23.968C28.2432 25.048 27.3792 25.912 26.2992 25.912C25.2312 25.912 24.3552 25.048 24.3552 23.968C24.3552 22.9 25.2312 22.036 26.2992 22.036ZM26.2992 25.048C26.8992 25.048 27.3792 24.568 27.3792 23.968C27.3792 23.38 26.8992 22.9 26.2992 22.9C25.7112 22.9 25.2192 23.38 25.2192 23.968C25.2192 24.568 25.7112 25.048 26.2992 25.048Z" fill="white"/>
<path d="M41.6825 25C41.8625 21.676 42.6305 19.852 44.4065 17.56H39.8105V16.084H46.3265V17.176C44.1425 19.84 43.5425 21.76 43.5305 25H41.6825Z" fill="white"/>
<path d="M11.5039 39.1172C9.93945 39.1172 9.29492 38.3027 9.29492 36.4102V31.6699H7.5371V30.2109H10.8769V36.3516C10.8769 37.1309 11.0469 37.4648 11.9726 37.4648C12.3418 37.4648 12.7344 37.3945 13.2734 37.2422L13.4551 38.8711C12.7871 39.0469 12.207 39.1172 11.5039 39.1172Z" fill="white"/>
<path d="M21.6113 36.3457V35.4902C21.6113 34.1367 22.1328 33.5566 23.3398 33.5566C23.8906 33.5566 24.3828 33.7852 24.8164 34.0781C25.1269 34.2773 25.3789 34.4824 25.6719 34.4824C25.9941 34.4824 26.123 34.3301 26.123 33.9785V33.3574H27.6699V34.2129C27.6699 35.5664 27.2012 36.1465 26.1172 36.1465C25.5781 36.1465 25.1035 35.918 24.6641 35.625C24.3359 35.4082 24.0254 35.2207 23.6855 35.2207C23.3223 35.2207 23.1699 35.373 23.1699 35.7246V36.3457H21.6113Z" fill="white"/>
<path d="M32.6562 31.728C34.0122 32.868 36.4122 35.388 37.4682 36.876L36.0042 38.04C34.9722 36.444 32.8602 34.092 31.2762 32.796L32.6562 31.728Z" fill="white"/>
<path d="M14.4185 44.528C14.7545 45.032 15.2825 45.896 15.5585 46.448L14.4785 46.916C14.1185 46.16 13.8185 45.584 13.3745 44.96L14.4185 44.528ZM16.0265 43.868C16.3865 44.348 16.9265 45.2 17.2025 45.74L16.1585 46.244C15.7745 45.488 15.4385 44.936 14.9945 44.336L16.0265 43.868ZM11.3225 43.556C11.2505 44.072 11.1905 44.684 11.1665 45.164C11.1185 46.448 11.0225 49.136 11.0225 50.624C11.0225 51.836 11.7425 52.232 12.6785 52.232C14.6585 52.232 15.9185 51.092 16.7825 49.784L17.8745 51.116C17.0945 52.256 15.4025 53.864 12.6665 53.864C10.6985 53.864 9.42649 53 9.42649 50.948C9.42649 49.34 9.54649 46.184 9.54649 45.164C9.54649 44.588 9.49849 44.012 9.39049 43.544L11.3225 43.556Z" fill="white"/>
<path d="M23.5145 43.484C23.4425 43.988 23.3825 44.612 23.3585 45.092C23.2985 46.388 23.2145 49.064 23.2145 50.552C23.2145 51.764 23.9345 52.16 24.8705 52.16C26.8505 52.16 28.0985 51.02 28.9745 49.712L30.0665 51.044C29.2865 52.196 27.5825 53.792 24.8465 53.792C22.8785 53.792 21.6185 52.928 21.6185 50.876C21.6185 49.268 21.7265 46.124 21.7265 45.092C21.7265 44.516 21.6785 43.94 21.5825 43.472L23.5145 43.484Z" fill="white"/>
<path d="M33.248 53V49.3848H31.3613V48.0254H33.248V47.3164C33.248 45.1602 34.2793 44.0937 36.3594 44.0937C36.8633 44.0937 37.2793 44.1289 37.748 44.2109L37.5957 45.6816C37.0742 45.623 36.6934 45.5996 36.3242 45.5996C35.3223 45.5996 34.8301 46.1445 34.8301 47.2578V48.0254H37.3027V49.3848H34.8301V53H33.248Z" fill="white"/>
<path d="M38.6797 54.4648V53H44.5391V54.4648H38.6797Z" fill="white"/>
<path d="M47.3457 55.5547L47.8144 51.5117H49.5605L48.8574 55.5547H47.3457Z" fill="white"/>
<path d="M53.2461 54.1719V52.7012H53.498C55.168 52.7012 56.0996 51.2773 56.0996 48.8047C56.0996 46.3789 55.168 44.9785 53.498 44.9785H53.2461V43.5078H53.498C56.1816 43.5078 57.7226 45.4355 57.7226 48.8047C57.7226 52.2207 56.1816 54.1719 53.498 54.1719H53.2461Z" fill="white"/>
<path d="M69.1835 44.228C68.9795 44.648 68.7995 45.176 68.6675 45.56C68.1635 46.94 67.3835 48.752 66.4115 49.964C65.3795 51.248 63.7115 52.712 61.8515 53.456L60.4955 52.052C62.3675 51.404 63.9755 50.216 65.0555 48.92C66.2075 47.528 66.9875 45.464 67.3235 43.736L69.1835 44.228Z" fill="white"/>
</svg>
